<?xml version="1.0" encoding="UTF-8"?>
<svg width="294px" height="410px" viewBox="0 0 294 410" version="1.1" xmlns="http://www.w3.org/2000/svg" xmlns:xlink="http://www.w3.org/1999/xlink">
    <!-- Generator: Sketch 57.1 (83088) - https://sketch.com -->
    <title>safari-pinned-tab</title>
    <desc>Created with Sketch.</desc>
    <g id="Page-1" stroke="none" stroke-width="1" fill="none" fill-rule="evenodd" opacity="0.948325893">
        <path d="M214.999504,340.47824 C214.999504,378.873906 183.939501,409.999744 145.625046,409.999744 C107.310591,409.999744 76.2505879,378.873906 76.2505879,340.47824 L214.999504,340.47824 Z M151.159705,1.11408585 C152.433342,1.84759935 153.490475,2.90472037 154.224003,4.17834898 L292.88375,244.934021 C295.18165,248.949093 293.817974,254.083146 289.837895,256.401249 L253.805041,277.387734 C249.824962,279.705837 244.735654,278.330172 242.437754,274.315099 L146.998082,107.557088 L51.5622455,274.315099 C49.2643458,278.330172 44.1750383,279.705837 40.1949591,277.387734 L4.16210507,256.401249 C0.182025913,254.083146 -1.18164992,248.949093 1.11624986,244.934021 L139.772304,4.17843115 C142.070652,0.187691783 147.168965,-1.18426234 151.159705,1.11408585 Z" id="safari-pinned-tab" fill="#000000"></path>
    </g>
</svg>